<?xml version="1.0" encoding="UTF-8"?>
<svg id="Layer_1" data-name="Layer 1" xmlns="http://www.w3.org/2000/svg" viewBox="0 0 239.36 130.45">
  <path d="M184.69.85c-1.14-.14-2-.28-3.15-.42-2.86-.28-6.29-.42-10.87-.42-43.77,0-78.67,12.46-95.55,31.86-21.74,25.49-20.6,47.01-53.21,47.01,0,3.4,5.44,6.09,12.3,6.09s12.3-2.69,12.3-6.09c0,3.4,5.44,6.09,12.3,6.09s12.3-2.69,12.3-6.09c0,3.4,5.44,6.09,12.3,6.09s12.3-2.69,12.3-6.09c0,3.4,5.44,6.09,12.3,6.09s12.3-2.69,12.3-6.09c0,3.4,5.44,6.09,12.3,6.09s12.3-2.69,12.3-6.09c0,3.4,5.44,6.09,12.3,6.09s12.3-2.69,12.3-6.09c0,3.4,5.44,6.09,12.3,6.09s12.02-2.83,12.02-6.09c0,0-82.39-6.37-56.36-33.7,3.43-3.4,8.3-5.1,11.16-5.8,1.43.99,3.43,1.84,6.01,2.27,6.87,1.27,14.59-.57,17.16-4.11,1.43-1.84.86-3.82-.57-5.38,3.15-.71,6.01-2.12,7.15-3.96,1.14-1.56,1.14-3.11,0-4.53,3.43-.71,6.29-2.12,7.72-3.96,1.43-1.98.86-3.96-.86-5.66,3.43-.71,6.58-2.12,7.72-4.11,2.29-3.82-1.43-7.79-8.3-9.06" style="fill: #7ecaf1; stroke-width: 0px;"/>
  <path d="M160.37,29.87c-.29.85,2.57,3.26,1.14,5.24-2,2.69-11.44,3.4-6.01,4.39,5.15.99,11.16-.42,13.16-3.11,1.43-1.98.29-4.25-2.57-5.66,4.01-.14,7.44-1.42,9.15-3.4,1.43-1.98.29-4.25-2.57-5.66,4.01-.14,7.44-1.42,9.15-3.4,1.43-2.12.29-4.39-2.86-5.66,4.01,0,7.72-1.42,9.44-3.4,2-2.69-.86-5.66-6.01-6.65-5.15-.99,1.14,2.69-.86,5.38-2.29,2.12-8.01,2.97-8.3,3.82-.86.71,2.57,3.26,1.14,5.38-1.43,1.98-6.87,2.97-7.44,3.68-.29.85,2.57,3.26,1.14,5.24s-6.87,2.97-7.72,3.82q0-.14,0,0" style="fill: #fff; stroke-width: 0px;"/>
  <g>
    <path d="M173.24,3.54c-4.01-.14-8.01,0-12.02.14-10.3.57-20.03,1.84-29.47,3.96-11.44,2.55-22.03,6.51-30.61,11.19-11.44,6.37-19.45,14.3-24.6,22.51-1.72,2.55,6.29,3.68,7.72,1.13,5.15-8.5,13.45-16.28,25.75-22.51,5.15-2.55,9.73-4.25,15.73-6.23,2.57-.85,5.44-1.56,8.01-2.12.57-.14,1.14-.28,2-.42,1.14-.28-.86.14.29,0,.29,0,.57-.14.86-.14,1.43-.28,2.57-.57,4.01-.85,4.29-.71,8.58-1.27,12.87-1.84.86-.14,2-.14,2.86-.28.29,0,.86,0,1.14-.14.29,0,2-.14.57,0,1.72-.14,3.15-.14,4.86-.28,3.15-.14,6.29-.28,9.44-.14,2.29.14,4.01-.99,4.01-2.12.86-.99-1.14-1.84-3.43-1.84" style="fill: #51a1d7; stroke-width: 0px;"/>
    <path d="M166.38,13.59c-5.15-.42-10.87,0-16.02.42-12.3,1.13-23.74,3.96-33.18,8.07-12.02,5.1-20.03,12.03-25.75,19.26-.86.99.86,2.27,2.86,2.55,2.29.28,4.29-.42,4.86-1.42,3.43-4.39,8.01-8.78,14.02-12.46,4.86-2.97,10.3-5.52,16.31-7.5,2.57-.85,5.44-1.7,8.3-2.27,0,0,1.14-.28.29-.14.29,0,.57-.14.86-.14.57-.14,1.43-.28,2-.42,1.43-.28,2.57-.42,4.01-.71,2.29-.42,4.86-.71,7.15-.85.57,0,1.14-.14,1.72-.14h.86c.86,0,2-.14,3.15-.14,2.86-.14,5.72-.14,8.58,0,2.29.14,4.01-.99,4.01-2.12s-2-1.84-4.01-1.98" style="fill: #51a1d7; stroke-width: 0px;"/>
    <path d="M159.23,22.09c-6.87-.14-14.3.85-20.6,2.12-15.16,3.11-25.75,9.34-31.18,17.13-.86,1.13.86,2.27,2.86,2.55,2.29.28,4.29-.42,4.86-1.42,2.57-3.68,6.58-6.94,12.02-9.63,2.29-1.13,4.29-1.84,6.87-2.83,1.14-.42,2.57-.71,3.72-1.13.57-.14,1.43-.28,2-.57.29-.14.57-.14,1.14-.28-.86.14.29,0,.29-.14,2.29-.42,4.58-.85,6.87-1.13,1.14-.14,2-.28,3.15-.28.57,0,1.14-.14,1.43-.14s2-.14.57,0c1.72-.14,3.72-.28,5.72-.14,5.44.14,5.44-4.11.29-4.11" style="fill: #51a1d7; stroke-width: 0px;"/>
    <path d="M152.65,31.43c-12.59,0-24.32,4.25-29.47,9.91-.86.99-.57,2.27,1.43,2.83,1.72.57,4.58.28,5.44-.71,1.72-1.84,4.01-3.4,6.87-4.67,1.14-.57,2.29-.85,3.72-1.27.57-.14,1.14-.28,1.72-.57.29-.14.86-.14,1.14-.28-.86.14.29-.14.57-.14,2-.42,4.29-.71,6.58-.85h2c5.15-.14,5.15-4.25,0-4.25" style="fill: #51a1d7; stroke-width: 0px;"/>
  </g>
  <text transform="translate(0 122.45)" style="fill: #221f20; font-family: PoetsenOne-Regular, PoetsenOne; font-size: 40px;"><tspan x="0" y="0">Sur</tspan><tspan x="64.8" y="0" style="letter-spacing: -.02em;">f</tspan><tspan x="81.84" y="0" style="letter-spacing: 0em;"> </tspan><tspan x="90.44" y="0" style="letter-spacing: 0em;">R</tspan><tspan x="114.84" y="0" style="letter-spacing: 0em;">oc</tspan><tspan x="159.08" y="0" style="letter-spacing: -.01em;">k</tspan><tspan x="180.12" y="0" style="letter-spacing: 0em;">ers</tspan></text>
  <path d="M122.8,72.16c.09-.07.18-.15.26-.24,3.19-3.68,9.42-2.6,9.42-2.6,0,0,3.16-.19,4.76-.63,8.32-2.3,10.68-10.2,8.4-18.53s-8.34-13.9-16.66-11.61c-1.6.44-3.07,1.12-4.39,1.98l-.02.02c-.41.28-.83.56-1.21.89-1.72,1.12-4.99,2.75-8.19,1.7h-.02c-4.09-1.95-8.88-2.49-13.61-1.19-10.46,2.88-14.84,13.21-11.97,23.69,2.87,10.46,11.9,17.1,22.36,14.22,4.6-1.27,8.34-4.07,10.88-7.69h0Z" style="fill: #f1e1c7; stroke-width: 0px;"/>
  <path d="M133.32,59.01l-2.6-9.5,56.99-15.73,2.6,9.5-56.99,15.73Z" style="fill: #f1e1c7; stroke-width: 0px;"/>
  <path d="M175.55,50.15c-.73.2-1.48-.23-1.68-.96l-3.38-12.33c-.2-.73.23-1.48.96-1.68l14.16-3.9c.73-.2,1.48.23,1.68.96l3.38,12.33c.2.73-.23,1.48-.96,1.69l-14.15,3.89h0Z" style="fill: #f1e1c7; stroke-width: 0px;"/>
  <path d="M119.33,51.64c-2.96.81-4.69,3.87-3.88,6.82s3.85,4.68,6.81,3.87,4.69-3.87,3.88-6.82c-.82-2.94-3.86-4.67-6.81-3.87ZM103.4,57.51c-.32-1.17-1.55-1.87-2.72-1.55s-1.87,1.55-1.55,2.72l2.49,9.07c.16.59.55,1.06,1.04,1.34s1.1.37,1.68.21c1.17-.32,1.87-1.55,1.55-2.72l-2.49-9.07Z" style="fill: #211f1e; stroke-width: 0px;"/>
  <path d="M189.62,51.11l-.64-2.36,1.32-.36c1.91-.54,3.02-2.52,2.5-4.4l-3.37-12.34c-.51-1.85-2.57-3.01-4.4-2.5l-1.25.35-.66-2.43c-.32-1.19-1.53-1.88-2.72-1.56-1.17.32-1.88,1.54-1.56,2.72l.65,2.44-3.04.84-.65-2.4c-.32-1.19-1.53-1.88-2.72-1.56-1.17.32-1.88,1.54-1.56,2.72l.65,2.41-1.32.36c-.93.25-1.7.85-2.17,1.7-.37.65-.52,1.39-.44,2.12l-23.2,6.41c-1.53-2.46-3.45-4.41-5.69-5.68-3.25-1.85-7.04-2.25-10.96-1.16-1.74.48-3.4,1.22-4.92,2.2-.07.04-.14.09-.2.14-.44.3-.84.59-1.2.88-1.34.86-3.84,2.11-6.09,1.42-4.69-2.19-10.01-2.63-15-1.25-11.19,3.09-16.87,14.19-13.52,26.42,1.71,6.24,5.4,11.24,10.39,14.08,4.45,2.53,9.53,3.11,14.69,1.69,4.81-1.32,9.05-4.29,11.95-8.34.09-.08.17-.17.26-.27,1.93-2.22,5.97-2.1,7.36-1.87.16.03.34.04.51.03.34-.02,3.43-.23,5.21-.72,4.61-1.27,7.95-4.15,9.65-8.3.68-1.67,1.07-3.49,1.18-5.43l23.45-6.48c.32.55.76,1.02,1.33,1.34.83.47,1.8.59,2.72.33l1.25-.34.64,2.38c.16.59.55,1.06,1.04,1.34s1.08.37,1.67.21c1.19-.32,1.88-1.54,1.56-2.72l-.65-2.4,3.04-.84.63,2.35c.16.59.55,1.06,1.04,1.34s1.08.37,1.68.22c1.19-.35,1.89-1.55,1.57-2.74h0ZM136.65,66.54c-1.03.28-3.12.48-4.08.55-1.42-.19-7.61-.74-11.18,3.37-.15.13-.29.27-.4.43-2.32,3.32-5.76,5.74-9.64,6.82-4.01,1.11-7.93.67-11.33-1.26-3.96-2.25-6.9-6.3-8.31-11.41-2.7-9.9,1.57-18.53,10.42-20.97,4.02-1.11,8.3-.73,12.16,1.09.05.03.09.03.14.05.01,0,.02.01.04,0,4.08,1.35,8.07-.64,10.08-1.94.07-.05.13-.09.19-.15.3-.24.63-.48,1.03-.75.02-.02.05-.03.07-.04,1.14-.75,2.4-1.31,3.71-1.67,2.81-.77,5.36-.53,7.6.75,1.26.72,2.4,1.77,3.39,3.07l-10.42,2.87c-1.17.32-1.87,1.55-1.55,2.72l2.6,9.5c.16.57.53,1.05,1.04,1.34s1.11.36,1.68.21l10.14-2.8c-.14.88-.37,1.73-.68,2.5-1.17,2.9-3.41,4.82-6.7,5.71h0ZM134.87,56.27l-1.43-5.23,35.91-9.91,1.43,5.23-35.91,9.91h0ZM175.77,47.78l-2.93-10.69,12.52-3.45,2.93,10.69-12.52,3.45Z" style="fill: #211f1e; stroke-width: 0px;"/>
</svg>