<?xml version="1.0" encoding="UTF-8"?>
<svg id="Layer_1" data-name="Layer 1" xmlns="http://www.w3.org/2000/svg" viewBox="0 0 239.36 130.44">
  <path d="M184.69.84c-1.14-.14-2-.28-3.15-.42-2.86-.28-6.29-.42-10.87-.42-43.77,0-78.67,12.46-95.55,31.86-21.74,25.49-20.6,47.01-53.21,47.01,0,3.4,5.44,6.09,12.3,6.09s12.3-2.69,12.3-6.09c0,3.4,5.44,6.09,12.3,6.09s12.3-2.69,12.3-6.09c0,3.4,5.44,6.09,12.3,6.09s12.3-2.69,12.3-6.09c0,3.4,5.44,6.09,12.3,6.09s12.3-2.69,12.3-6.09c0,3.4,5.44,6.09,12.3,6.09s12.3-2.69,12.3-6.09c0,3.4,5.44,6.09,12.3,6.09s12.3-2.69,12.3-6.09c0,3.4,5.44,6.09,12.3,6.09s12.02-2.83,12.02-6.09c0,0-82.39-6.37-56.36-33.7,3.43-3.4,8.3-5.1,11.16-5.8,1.43.99,3.43,1.84,6.01,2.27,6.87,1.27,14.59-.57,17.16-4.11,1.43-1.84.86-3.82-.57-5.38,3.15-.71,6.01-2.12,7.15-3.96,1.14-1.56,1.14-3.11,0-4.53,3.43-.71,6.29-2.12,7.72-3.96,1.43-1.98.86-3.96-.86-5.66,3.43-.71,6.58-2.12,7.72-4.11,2.29-3.82-1.43-7.79-8.3-9.06" style="fill: #7ecaf1; stroke-width: 0px;"/>
  <path d="M160.37,29.86c-.29.85,2.57,3.26,1.14,5.24-2,2.69-11.44,3.4-6.01,4.39,5.15.99,11.16-.42,13.16-3.11,1.43-1.98.29-4.25-2.57-5.66,4.01-.14,7.44-1.42,9.15-3.4,1.43-1.98.29-4.25-2.57-5.66,4.01-.14,7.44-1.42,9.15-3.4,1.43-2.12.29-4.39-2.86-5.66,4.01,0,7.72-1.42,9.44-3.4,2-2.69-.86-5.66-6.01-6.65-5.15-.99,1.14,2.69-.86,5.38-2.29,2.12-8.01,2.97-8.3,3.82-.86.71,2.57,3.26,1.14,5.38-1.43,1.98-6.87,2.97-7.44,3.68-.29.85,2.57,3.26,1.14,5.24s-6.87,2.97-7.72,3.82q0-.09,0,0" style="fill: #fff; stroke-width: 0px;"/>
  <g>
    <path d="M173.24,3.53c-4.01-.14-8.01,0-12.02.14-10.3.57-20.03,1.84-29.47,3.96-11.44,2.55-22.03,6.51-30.61,11.19-11.44,6.37-19.45,14.3-24.6,22.51-1.72,2.55,6.29,3.68,7.72,1.13,5.15-8.5,13.45-16.28,25.75-22.51,5.15-2.55,9.73-4.25,15.73-6.23,2.57-.85,5.44-1.56,8.01-2.12.57-.14,1.14-.28,2-.42,1.14-.28-.86.14.29,0,.29,0,.57-.14.86-.14,1.43-.28,2.57-.57,4.01-.85,4.29-.71,8.58-1.27,12.87-1.84.86-.14,2-.14,2.86-.28.29,0,.86,0,1.14-.14.29,0,2-.14.57,0,1.72-.14,3.15-.14,4.86-.28,3.15-.14,6.29-.28,9.44-.14,2.29.14,4.01-.99,4.01-2.12.86-.99-1.14-1.84-3.43-1.84" style="fill: #51a1d7; stroke-width: 0px;"/>
    <path d="M166.38,13.58c-5.15-.42-10.87,0-16.02.42-12.3,1.13-23.74,3.96-33.18,8.07-12.02,5.1-20.03,12.03-25.75,19.26-.86.99.86,2.27,2.86,2.55,2.29.28,4.29-.42,4.86-1.42,3.43-4.39,8.01-8.78,14.02-12.46,4.86-2.97,10.3-5.52,16.31-7.5,2.57-.85,5.44-1.7,8.3-2.27,0,0,1.14-.28.29-.14.29,0,.57-.14.86-.14.57-.14,1.43-.28,2-.42,1.43-.28,2.57-.42,4.01-.71,2.29-.42,4.86-.71,7.15-.85.57,0,1.14-.14,1.72-.14h.86c.86,0,2-.14,3.15-.14,2.86-.14,5.72-.14,8.58,0,2.29.14,4.01-.99,4.01-2.12s-2-1.84-4.01-1.98" style="fill: #51a1d7; stroke-width: 0px;"/>
    <path d="M159.23,22.08c-6.87-.14-14.3.85-20.6,2.12-15.16,3.11-25.75,9.34-31.18,17.13-.86,1.13.86,2.27,2.86,2.55,2.29.28,4.29-.42,4.86-1.42,2.57-3.68,6.58-6.94,12.02-9.63,2.29-1.13,4.29-1.84,6.87-2.83,1.14-.42,2.57-.71,3.72-1.13.57-.14,1.43-.28,2-.57.29-.14.57-.14,1.14-.28-.86.14.29,0,.29-.14,2.29-.42,4.58-.85,6.87-1.13,1.14-.14,2-.28,3.15-.28.57,0,1.14-.14,1.43-.14s2-.14.57,0c1.72-.14,3.72-.28,5.72-.14,5.44.14,5.44-4.11.29-4.11" style="fill: #51a1d7; stroke-width: 0px;"/>
    <path d="M152.65,31.42c-12.59,0-24.32,4.25-29.47,9.91-.86.99-.57,2.27,1.43,2.83,1.72.57,4.58.28,5.44-.71,1.72-1.84,4.01-3.4,6.87-4.67,1.14-.57,2.29-.85,3.72-1.27.57-.14,1.14-.28,1.72-.57.29-.14.86-.14,1.14-.28-.86.14.29-.14.57-.14,2-.42,4.29-.71,6.58-.85h2c5.15-.14,5.15-4.25,0-4.25" style="fill: #51a1d7; stroke-width: 0px;"/>
  </g>
  <g style="isolation: isolate;">
    <g style="isolation: isolate;">
      <path d="M13.04,93.64c2.51,0,4.37.55,5.58,1.64,1.21,1.09,1.82,2.52,1.82,4.28,0,1.49-.41,2.63-1.24,3.42-.83.79-2.01,1.18-3.56,1.18-.48,0-.79-.05-.92-.14-.13-.09-.2-.29-.2-.58,0-.27-.02-.61-.06-1.04-.04-.43-.14-.84-.3-1.24-.16-.4-.41-.74-.76-1.02-.35-.28-.83-.42-1.44-.42-.85,0-1.61.26-2.28.78-.67.52-1,1.19-1,2.02,0,.72.27,1.31.82,1.76.55.45,1.23.87,2.06,1.26.83.39,1.73.78,2.7,1.18.97.4,1.87.93,2.7,1.58.83.65,1.51,1.47,2.06,2.44.55.97.82,2.21.82,3.7,0,1.17-.19,2.27-.58,3.3-.39,1.03-.96,1.92-1.72,2.68-.76.76-1.72,1.35-2.88,1.78-1.16.43-2.51.64-4.06.64-1.33,0-2.57-.15-3.7-.44-1.13-.29-2.12-.66-2.96-1.1-.84-.44-1.5-.92-1.98-1.44-.48-.52-.72-.99-.72-1.42,0-1.76.1-3.03.3-3.8s.57-1.16,1.1-1.16c.37,0,.77.16,1.18.48.41.32.89.68,1.42,1.08.53.4,1.15.76,1.86,1.08.71.32,1.53.48,2.46.48.37,0,.74-.03,1.1-.1.36-.07.68-.18.96-.34.28-.16.51-.37.68-.64s.26-.59.26-.96c0-.67-.25-1.2-.76-1.6-.51-.4-1.15-.77-1.92-1.1-.77-.33-1.61-.68-2.5-1.04-.89-.36-1.73-.85-2.5-1.48s-1.41-1.43-1.92-2.42c-.51-.99-.76-2.25-.76-3.8,0-1.73.33-3.2.98-4.4.65-1.2,1.49-2.18,2.52-2.94,1.03-.76,2.19-1.31,3.48-1.64,1.29-.33,2.58-.5,3.86-.5Z" style="fill: #221f20; stroke-width: 0px;"/>
      <path d="M30.92,103.84c0,.56-.05,1.35-.14,2.36-.09,1.01-.19,2.07-.28,3.16-.09,1.09-.19,2.12-.28,3.08-.09.96-.14,1.65-.14,2.08,0,.93.23,1.66.7,2.18.47.52,1.11.78,1.94.78.72,0,1.33-.29,1.82-.86.49-.57.89-1.32,1.2-2.24.31-.92.55-1.97.74-3.14.19-1.17.33-2.36.42-3.56.09-1.2.17-2.37.24-3.5.07-1.13.14-2.11.22-2.94.03-.21.11-.4.24-.56.13-.16.35-.24.64-.24h1.44c.83,0,1.5.09,2.02.26.52.17.93.42,1.24.74s.52.71.64,1.18c.12.47.18,1.01.18,1.62,0,.4-.02.97-.06,1.7s-.11,1.75-.22,3.04c-.11,1.29-.23,2.93-.38,4.92-.15,1.99-.33,4.45-.54,7.38-.05.56-.11.89-.18,1-.07.11-.29.16-.66.16h-1.56c-.8,0-1.46-.09-1.98-.28-.52-.19-.94-.43-1.26-.72-.32-.29-.55-.64-.68-1.04-.13-.4-.21-.81-.24-1.24-.4.69-.85,1.28-1.34,1.76-.49.48-1.01.86-1.54,1.14-.53.28-1.08.48-1.64.6s-1.11.18-1.64.18c-1.01,0-1.92-.17-2.72-.5-.8-.33-1.47-.78-2.02-1.34-.55-.56-.97-1.23-1.26-2-.29-.77-.44-1.6-.44-2.48,0-.35.02-.91.06-1.7.04-.79.09-1.67.16-2.66.07-.99.14-2.03.22-3.14.08-1.11.15-2.15.22-3.14.07-.99.13-1.85.2-2.6.07-.75.11-1.28.14-1.6.05-.48.16-.81.32-.98.16-.17.43-.26.8-.26h1.28c.83,0,1.51.08,2.04.24.53.16.95.39,1.26.68.31.29.52.65.64,1.06.12.41.18.89.18,1.42Z" style="fill: #221f20; stroke-width: 0px;"/>
      <path d="M60.2,110c-.16,0-.34,0-.54-.02-.2-.01-.39-.04-.58-.08-.19-.04-.35-.09-.48-.16-.13-.07-.2-.15-.2-.26,0-.35.01-.67.04-.96.03-.29.04-.6.04-.92,0-.59-.08-1.07-.24-1.44-.16-.37-.48-.56-.96-.56-.75,0-1.37.49-1.86,1.46-.49.97-.81,2.43-.94,4.38-.05.85-.13,1.82-.22,2.9-.09,1.08-.18,2.12-.26,3.12s-.15,1.89-.2,2.66c-.05.77-.08,1.28-.08,1.52,0,.27-.09.47-.28.6-.19.13-.39.2-.6.2h-1.44c-.83,0-1.5-.09-2.02-.26-.52-.17-.93-.42-1.24-.74-.31-.32-.52-.71-.64-1.18-.12-.47-.18-1.01-.18-1.62,0-.4.02-.97.06-1.7.04-.73.11-1.75.22-3.04.11-1.29.23-2.93.38-4.92.15-1.99.33-4.45.54-7.38.05-.77.33-1.16.84-1.16h1.56c.75,0,1.37.08,1.88.24.51.16.92.38,1.24.66.32.28.55.61.7.98.15.37.25.76.3,1.16.32-.61.7-1.14,1.14-1.58s.9-.8,1.38-1.08.97-.48,1.48-.6c.51-.12.97-.18,1.4-.18.51,0,1.02.09,1.54.28s.99.47,1.42.84c.43.37.77.85,1.02,1.44.25.59.38,1.28.38,2.08,0,.72-.11,1.4-.32,2.04-.21.64-.52,1.21-.92,1.7s-.89.88-1.46,1.16c-.57.28-1.21.42-1.9.42Z" style="fill: #221f20; stroke-width: 0px;"/>
    </g>
    <g style="isolation: isolate;">
      <path d="M74.72,108.6c-.05.8-.12,1.67-.2,2.6-.08.93-.16,1.87-.24,2.82-.08.95-.15,1.87-.22,2.78s-.13,1.71-.18,2.4c-.05.69-.1,1.27-.14,1.72s-.06.69-.06.72c-.03.32-.09.53-.2.64-.11.11-.33.16-.68.16h-1.44c-1.44,0-2.45-.34-3.02-1.02-.57-.68-.86-1.7-.86-3.06,0-.16.02-.56.06-1.2.04-.64.09-1.41.16-2.3.07-.89.14-1.89.22-2.98s.16-2.19.24-3.28h-1.88c-.29,0-.44-.15-.44-.44,0-.21.01-.53.04-.94.03-.41.05-.82.08-1.22.03-.32.07-.65.14-.98.07-.33.19-.63.36-.88.17-.25.43-.47.78-.64.35-.17.8-.27,1.36-.3l.16-1.6c.16-1.73.49-3.19.98-4.36.49-1.17,1.14-2.11,1.94-2.82.8-.71,1.75-1.21,2.86-1.52,1.11-.31,2.34-.46,3.7-.46s2.47.12,3.42.36c.95.24,1.71.57,2.3,1,.59.43,1.01.93,1.28,1.52.27.59.4,1.21.4,1.88,0,1.39-.43,2.37-1.3,2.96-.87.59-2.03.88-3.5.88-.4,0-.67-.03-.82-.1-.15-.07-.22-.22-.22-.46,0-.88-.08-1.57-.24-2.08-.16-.51-.6-.76-1.32-.76-.53,0-.99.16-1.36.48-.37.32-.68.74-.92,1.26-.24.52-.42,1.11-.54,1.78-.12.67-.22,1.35-.3,2.04h4.6c.43,0,.64.19.64.56l-.16,2.16c-.05.8-.27,1.45-.66,1.94-.39.49-1.18.74-2.38.74h-2.44Z" style="fill: #221f20; stroke-width: 0px;"/>
    </g>
    <g style="isolation: isolate;">
      <path d="M96.64,122.44c-1.52,0-2.59-.3-3.22-.9-.63-.6-.94-1.49-.94-2.66,0-.32.02-.86.06-1.62.04-.76.1-1.66.18-2.7.08-1.04.17-2.18.26-3.42.09-1.24.19-2.5.3-3.78.21-2.69.37-4.88.46-6.56.09-1.68.17-3,.22-3.96.08-1.2.16-1.97.24-2.3.08-.33.25-.5.52-.5.83,0,1.67-.02,2.54-.06.87-.04,1.7-.09,2.5-.14.8-.05,1.55-.1,2.26-.14.71-.04,1.34-.06,1.9-.06,1.71,0,3.17.21,4.4.64,1.23.43,2.22,1.03,2.98,1.8.76.77,1.32,1.71,1.68,2.8s.54,2.32.54,3.68c0,2.08-.41,3.93-1.24,5.56-.83,1.63-2.15,2.87-3.96,3.72l3.36,4.8c.61.91,1.08,1.61,1.4,2.1.32.49.48.86.48,1.1,0,.19-.11.45-.34.78-.23.33-.56.67-1,1-.44.33-.97.62-1.6.86-.63.24-1.33.36-2.1.36-.85,0-1.59-.28-2.22-.84-.63-.56-1.19-1.3-1.68-2.22-.49-.92-.92-1.98-1.28-3.18s-.7-2.45-1.02-3.76c-.96-.05-1.75-.15-2.36-.28-.08,1.17-.16,2.29-.24,3.36-.08,1.07-.15,2.02-.2,2.86-.05.84-.11,1.53-.16,2.08-.05.55-.08.87-.08.98-.03.21-.08.37-.16.46-.08.09-.24.14-.48.14h-2ZM103.12,99.64c-.32,0-.68.02-1.08.06s-.83.09-1.28.14c-.05.93-.11,2.05-.18,3.34-.07,1.29-.15,2.67-.26,4.14.93.21,1.75.32,2.44.32.83,0,1.5-.16,2.02-.48.52-.32.93-.71,1.22-1.18.29-.47.49-.97.58-1.5.09-.53.14-1.01.14-1.44,0-1.09-.27-1.93-.8-2.52-.53-.59-1.47-.88-2.8-.88Z" style="fill: #221f20; stroke-width: 0px;"/>
    </g>
    <g style="isolation: isolate;">
      <path d="M125.44,122.84c-1.84,0-3.37-.26-4.58-.78-1.21-.52-2.18-1.23-2.9-2.14-.72-.91-1.23-1.97-1.52-3.18-.29-1.21-.44-2.51-.44-3.9,0-1.6.19-3.17.58-4.7.39-1.53,1.05-2.9,1.98-4.1.93-1.2,2.17-2.17,3.7-2.9,1.53-.73,3.45-1.1,5.74-1.1,3.36,0,5.77.82,7.22,2.46,1.45,1.64,2.18,3.94,2.18,6.9,0,.83-.06,1.74-.18,2.74s-.35,1.99-.68,2.98c-.33.99-.79,1.95-1.36,2.88-.57.93-1.3,1.76-2.18,2.48s-1.94,1.29-3.18,1.72c-1.24.43-2.7.64-4.38.64ZM127.32,105.36c-1.01,0-1.82.26-2.42.78-.6.52-1.05,1.15-1.36,1.88s-.51,1.51-.6,2.32c-.09.81-.14,1.5-.14,2.06,0,1.76.28,3.05.84,3.88.56.83,1.36,1.24,2.4,1.24.93,0,1.7-.29,2.3-.88.6-.59,1.07-1.29,1.4-2.12.33-.83.56-1.69.68-2.6s.18-1.67.18-2.28c0-1.33-.25-2.38-.74-3.14-.49-.76-1.34-1.14-2.54-1.14Z" style="fill: #221f20; stroke-width: 0px;"/>
      <path d="M150.48,117.52c.77,0,1.45-.11,2.02-.32.57-.21,1.07-.45,1.5-.72.43-.27.79-.51,1.08-.72.29-.21.56-.32.8-.32.61,0,.92.4.92,1.2,0,.19-.04.45-.12.78-.08.33-.19.68-.32,1.04-.13.36-.27.7-.42,1.02-.15.32-.29.56-.42.72-.13.13-.37.35-.7.64-.33.29-.78.59-1.34.88-.56.29-1.21.55-1.96.78-.75.23-1.57.34-2.48.34-1.01,0-2.06-.15-3.14-.46-1.08-.31-2.06-.84-2.94-1.6s-1.61-1.79-2.18-3.08c-.57-1.29-.86-2.91-.86-4.86,0-.69.05-1.49.14-2.38.09-.89.29-1.81.58-2.76.29-.95.69-1.88,1.18-2.8.49-.92,1.15-1.74,1.98-2.46.83-.72,1.82-1.3,2.98-1.74,1.16-.44,2.54-.66,4.14-.66,1.31,0,2.43.15,3.38.46.95.31,1.73.72,2.34,1.24.61.52,1.07,1.13,1.38,1.82s.46,1.44.46,2.24c0,1.44-.45,2.5-1.36,3.18-.91.68-2.19,1.02-3.84,1.02-.4,0-.67-.03-.82-.1-.15-.07-.22-.22-.22-.46,0-.64-.01-1.21-.04-1.72-.03-.51-.1-.93-.22-1.28-.12-.35-.3-.61-.54-.8-.24-.19-.59-.28-1.04-.28-.83,0-1.49.27-1.98.8-.49.53-.87,1.18-1.12,1.94-.25.76-.41,1.54-.48,2.34-.07.8-.1,1.47-.1,2,0,1.89.3,3.21.9,3.96.6.75,1.55,1.12,2.86,1.12Z" style="fill: #221f20; stroke-width: 0px;"/>
    </g>
    <g style="isolation: isolate;">
      <path d="M179.72,119.2c0,.13-.07.4-.2.8-.13.4-.35.81-.64,1.24-.29.43-.66.8-1.1,1.12-.44.32-.97.48-1.58.48-.72,0-1.43-.24-2.14-.72-.71-.48-1.41-1.13-2.1-1.96-.69-.83-1.39-1.81-2.1-2.94-.71-1.13-1.42-2.37-2.14-3.7-.11,1.41-.21,2.8-.32,4.16-.11,1.36-.21,2.68-.32,3.96-.03.32-.09.53-.2.64-.11.11-.33.16-.68.16h-1.44c-.83,0-1.51-.09-2.04-.26s-.95-.42-1.24-.74c-.29-.32-.5-.73-.62-1.22-.12-.49-.18-1.06-.18-1.7,0-.32.01-.65.04-1s.07-.84.12-1.48c.05-.64.13-1.48.22-2.52s.21-2.41.34-4.12c.13-1.71.29-3.81.46-6.3.17-2.49.37-5.53.58-9.1.03-.59.09-.93.2-1.04.08-.08.29-.12.64-.12h1.56c.83,0,1.51.09,2.04.28.53.19.96.44,1.28.76s.54.69.66,1.12c.12.43.18.87.18,1.32,0,.27-.02.71-.06,1.34-.04.63-.09,1.39-.14,2.28-.05.89-.13,1.9-.22,3.02-.09,1.12-.18,2.29-.26,3.52l6.4-5.84c.24-.21.46-.36.66-.44s.35-.12.46-.12c.29,0,.61.19.96.56.35.37.67.81.98,1.3.31.49.56,1,.76,1.52.2.52.3.94.3,1.26,0,.77-.62,1.59-1.86,2.44-1.24.85-3.11,1.81-5.62,2.88,1.12,1.25,2.19,2.4,3.2,3.44s1.9,1.96,2.66,2.76,1.37,1.45,1.82,1.96c.45.51.68.84.68,1Z" style="fill: #221f20; stroke-width: 0px;"/>
    </g>
    <g style="isolation: isolate;">
      <path d="M191,122.84c-1.17,0-2.34-.15-3.5-.44s-2.2-.8-3.12-1.52c-.92-.72-1.67-1.68-2.26-2.88-.59-1.2-.88-2.71-.88-4.52,0-.67.05-1.47.16-2.4.11-.93.31-1.89.62-2.88.31-.99.73-1.97,1.28-2.94.55-.97,1.26-1.85,2.14-2.62.88-.77,1.95-1.4,3.2-1.88,1.25-.48,2.75-.72,4.48-.72,1.39,0,2.56.16,3.52.48s1.73.75,2.32,1.3c.59.55,1.01,1.18,1.28,1.9.27.72.4,1.49.4,2.32,0,1.23-.25,2.27-.74,3.12-.49.85-1.13,1.57-1.92,2.14-.79.57-1.66,1.02-2.62,1.34-.96.32-1.91.57-2.84.74-.93.17-1.79.28-2.58.32-.79.04-1.39.06-1.82.06,0,.51.07,1.01.22,1.5s.37.93.66,1.3c.29.37.68.68,1.16.92.48.24,1.07.36,1.76.36s1.23-.11,1.62-.34c.39-.23.7-.48.94-.76.24-.28.45-.53.62-.76s.41-.34.7-.34c.13,0,.37.03.7.1.33.07.67.21,1.02.42.35.21.65.51.92.88.27.37.4.85.4,1.44,0,.77-.24,1.44-.72,2-.48.56-1.1,1.01-1.86,1.36s-1.61.6-2.54.76-1.84.24-2.72.24ZM191.76,105.36c-.59,0-1.09.17-1.5.5-.41.33-.76.75-1.04,1.26-.28.51-.49,1.07-.64,1.68-.15.61-.26,1.2-.34,1.76,1.65-.03,2.99-.31,4.02-.84s1.54-1.29,1.54-2.28c0-.53-.17-1.01-.5-1.44-.33-.43-.85-.64-1.54-.64Z" style="fill: #221f20; stroke-width: 0px;"/>
      <path d="M215.96,110c-.16,0-.34,0-.54-.02-.2-.01-.39-.04-.58-.08-.19-.04-.35-.09-.48-.16-.13-.07-.2-.15-.2-.26,0-.35.01-.67.04-.96.03-.29.04-.6.04-.92,0-.59-.08-1.07-.24-1.44-.16-.37-.48-.56-.96-.56-.75,0-1.37.49-1.86,1.46-.49.97-.81,2.43-.94,4.38-.05.85-.13,1.82-.22,2.9-.09,1.08-.18,2.12-.26,3.12s-.15,1.89-.2,2.66c-.05.77-.08,1.28-.08,1.52,0,.27-.09.47-.28.6-.19.13-.39.2-.6.2h-1.44c-.83,0-1.5-.09-2.02-.26s-.93-.42-1.24-.74-.52-.71-.64-1.18-.18-1.01-.18-1.62c0-.4.02-.97.06-1.7s.11-1.75.22-3.04c.11-1.29.23-2.93.38-4.92.15-1.99.33-4.45.54-7.38.05-.77.33-1.16.84-1.16h1.56c.75,0,1.37.08,1.88.24.51.16.92.38,1.24.66.32.28.55.61.7.98.15.37.25.76.3,1.16.32-.61.7-1.14,1.14-1.58.44-.44.9-.8,1.38-1.08.48-.28.97-.48,1.48-.6.51-.12.97-.18,1.4-.18.51,0,1.02.09,1.54.28.52.19.99.47,1.42.84.43.37.77.85,1.02,1.44.25.59.38,1.28.38,2.08,0,.72-.11,1.4-.32,2.04-.21.64-.52,1.21-.92,1.7-.4.49-.89.88-1.46,1.16-.57.28-1.21.42-1.9.42Z" style="fill: #221f20; stroke-width: 0px;"/>
      <path d="M231.52,100.04c2.27,0,3.93.45,5,1.34,1.07.89,1.6,2.03,1.6,3.42,0,1.17-.37,2.07-1.1,2.68-.73.61-1.79.92-3.18.92-.37,0-.63-.04-.76-.12s-.2-.23-.2-.44c0-.24-.02-.51-.06-.82s-.13-.6-.28-.88-.37-.51-.68-.7-.74-.28-1.3-.28c-.75,0-1.35.18-1.8.54-.45.36-.68.81-.68,1.34,0,.56.23,1.01.7,1.34.47.33,1.05.65,1.76.94.71.29,1.47.59,2.3.9.83.31,1.59.71,2.3,1.22.71.51,1.29,1.14,1.76,1.9.47.76.7,1.74.7,2.94,0,1.92-.68,3.49-2.04,4.72-1.36,1.23-3.4,1.84-6.12,1.84-.75,0-1.61-.06-2.58-.18-.97-.12-1.9-.31-2.78-.56-.88-.25-1.62-.59-2.22-1.02-.6-.43-.9-.96-.9-1.6,0-.24.05-.53.14-.88.09-.35.24-.68.44-1s.44-.59.72-.82c.28-.23.62-.34,1.02-.34.32,0,.61.08.88.24s.58.33.94.5c.36.17.81.34,1.34.5.53.16,1.24.24,2.12.24.67,0,1.26-.08,1.78-.24.52-.16.78-.52.78-1.08,0-.51-.21-.91-.64-1.22-.43-.31-.97-.59-1.62-.86s-1.36-.55-2.12-.86c-.76-.31-1.47-.71-2.12-1.22-.65-.51-1.19-1.15-1.62-1.94-.43-.79-.64-1.81-.64-3.06,0-1.36.27-2.51.82-3.46.55-.95,1.25-1.71,2.12-2.3.87-.59,1.85-1.01,2.94-1.26,1.09-.25,2.19-.38,3.28-.38Z" style="fill: #221f20; stroke-width: 0px;"/>
    </g>
  </g>
  <path d="M122.8,72.15c.09-.07.18-.15.26-.24,3.19-3.68,9.42-2.6,9.42-2.6,0,0,3.16-.19,4.76-.63,8.32-2.3,10.68-10.2,8.4-18.53s-8.34-13.9-16.66-11.61c-1.6.44-3.07,1.12-4.39,1.98l-.02.02c-.41.28-.83.56-1.21.89-1.72,1.12-4.99,2.75-8.19,1.7h-.02c-4.09-1.95-8.88-2.49-13.61-1.19-10.46,2.88-14.84,13.21-11.97,23.69,2.87,10.46,11.9,17.1,22.36,14.22,4.6-1.27,8.34-4.07,10.88-7.69h0Z" style="fill: #f1e1c7; stroke-width: 0px;"/>
  <path d="M133.32,59l-2.6-9.5,56.99-15.73,2.6,9.5-56.99,15.73Z" style="fill: #f1e1c7; stroke-width: 0px;"/>
  <path d="M175.55,50.14c-.73.2-1.48-.23-1.68-.96l-3.38-12.33c-.2-.73.23-1.48.96-1.68l14.16-3.9c.73-.2,1.48.23,1.68.96l3.38,12.33c.2.73-.23,1.48-.96,1.69l-14.15,3.89h-.01Z" style="fill: #f1e1c7; stroke-width: 0px;"/>
  <path d="M119.33,51.63c-2.96.81-4.69,3.87-3.88,6.82s3.85,4.68,6.81,3.87,4.69-3.87,3.88-6.82c-.82-2.94-3.86-4.67-6.81-3.87ZM103.4,57.5c-.32-1.17-1.55-1.87-2.72-1.55s-1.87,1.55-1.55,2.72l2.49,9.07c.16.59.55,1.06,1.04,1.34s1.1.37,1.68.21c1.17-.32,1.87-1.55,1.55-2.72,0,0-2.49-9.07-2.49-9.07Z" style="fill: #211f1e; stroke-width: 0px;"/>
  <path d="M189.62,51.1l-.64-2.36,1.32-.36c1.91-.54,3.02-2.52,2.5-4.4l-3.37-12.34c-.51-1.85-2.57-3.01-4.4-2.5l-1.25.35-.66-2.43c-.32-1.19-1.53-1.88-2.72-1.56-1.17.32-1.88,1.54-1.56,2.72l.65,2.44-3.04.84-.65-2.4c-.32-1.19-1.53-1.88-2.72-1.56-1.17.32-1.88,1.54-1.56,2.72l.65,2.41-1.32.36c-.93.25-1.7.85-2.17,1.7-.37.65-.52,1.39-.44,2.12l-23.2,6.41c-1.53-2.46-3.45-4.41-5.69-5.68-3.25-1.85-7.04-2.25-10.96-1.16-1.74.48-3.4,1.22-4.92,2.2-.07.04-.14.09-.2.14-.44.3-.84.59-1.2.88-1.34.86-3.84,2.11-6.09,1.42-4.69-2.19-10.01-2.63-15-1.25-11.19,3.09-16.87,14.19-13.52,26.42,1.71,6.24,5.4,11.24,10.39,14.08,4.45,2.53,9.53,3.11,14.69,1.69,4.81-1.32,9.05-4.29,11.95-8.34.09-.08.17-.17.26-.27,1.93-2.22,5.97-2.1,7.36-1.87.16.03.34.04.51.03.34-.02,3.43-.23,5.21-.72,4.61-1.27,7.95-4.15,9.65-8.3.68-1.67,1.07-3.49,1.18-5.43l23.45-6.48c.32.55.76,1.02,1.33,1.34.83.47,1.8.59,2.72.33l1.25-.34.64,2.38c.16.59.55,1.06,1.04,1.34s1.08.37,1.67.21c1.19-.32,1.88-1.54,1.56-2.72l-.65-2.4,3.04-.84.63,2.35c.16.59.55,1.06,1.04,1.34s1.08.37,1.68.22c1.19-.35,1.89-1.55,1.57-2.74h0ZM136.65,66.53c-1.03.28-3.12.48-4.08.55-1.42-.19-7.61-.74-11.18,3.37-.15.13-.29.27-.4.43-2.32,3.32-5.76,5.74-9.64,6.82-4.01,1.11-7.93.67-11.33-1.26-3.96-2.25-6.9-6.3-8.31-11.41-2.7-9.9,1.57-18.53,10.42-20.97,4.02-1.11,8.3-.73,12.16,1.09.05.03.09.03.14.05.01,0,.02,0,.04,0,4.08,1.35,8.07-.64,10.08-1.94.07-.05.13-.09.19-.15.3-.24.63-.48,1.03-.75.02-.02.05-.03.07-.04,1.14-.75,2.4-1.31,3.71-1.67,2.81-.77,5.36-.53,7.6.75,1.26.72,2.4,1.77,3.39,3.07l-10.42,2.87c-1.17.32-1.87,1.55-1.55,2.72l2.6,9.5c.16.57.53,1.05,1.04,1.34s1.11.36,1.68.21l10.14-2.8c-.14.88-.37,1.73-.68,2.5-1.17,2.9-3.41,4.82-6.7,5.71h0ZM134.87,56.26l-1.43-5.23,35.91-9.91,1.43,5.23-35.91,9.91h0ZM175.77,47.77l-2.93-10.69,12.52-3.45,2.93,10.69-12.52,3.45Z" style="fill: #211f1e; stroke-width: 0px;"/>
</svg>